<svg xmlns="http://www.w3.org/2000/svg" width="51" height="50" viewBox="0 0 51 50" fill="none"><path d="M49.3531 42.6033C51.0805 44.3324 51.0805 47.0221 49.3531 48.7512C48.4893 49.6157 47.4337 50 46.2821 50C45.1304 50 44.0748 49.6157 43.211 48.7512L25.6487 31.172L8.08627 48.7512C7.22255 49.6157 6.16689 50 5.01525 50C3.86362 50 2.80796 49.6157 1.94424 48.7512C0.216789 47.0221 0.216789 44.3324 1.94424 42.6033L19.5066 25.024L1.94424 7.44477C0.216789 5.71566 0.216789 3.02594 1.94424 1.29683C3.67168 -0.432277 6.35883 -0.432277 8.08627 1.29683L25.6487 18.8761L43.211 1.29683C44.9385 -0.432277 47.6256 -0.432277 49.3531 1.29683C51.0805 3.02594 51.0805 5.71566 49.3531 7.44477L31.7907 25.024L49.3531 42.6033Z" fill="#333333"></path></svg>