<svg xmlns="http://www.w3.org/2000/svg" width="62" height="70" viewBox="0 0 62 70" fill="none"><path d="M52.2207 44.333C52.2207 52.065 45.9527 58.333 38.2207 58.333C30.4887 58.333 24.2207 52.065 24.2207 44.333C24.2207 36.601 30.4887 30.333 38.2207 30.333C45.9527 30.333 52.2207 36.601 52.2207 44.333ZM27.8597 44.333C27.8597 50.0552 32.4985 54.694 38.2207 54.694C43.9429 54.694 48.5817 50.0552 48.5817 44.333C48.5817 38.6108 43.9429 33.972 38.2207 33.972C32.4985 33.972 27.8597 38.6108 27.8597 44.333Z" fill="#4B2AAD"></path><path d="M26.7656 44.3896C26.7769 50.5343 31.7356 55.5906 38.0221 55.5906C48.0109 55.5527 52.9608 43.4175 45.9078 36.3999C38.8818 29.4111 26.7553 34.3315 26.7656 44.3896ZM38.0157 53.9526C38.005 53.9526 37.9944 53.9526 37.9837 53.9526C32.758 53.9526 28.4131 49.7274 28.4036 44.3869C28.3941 36.4226 36.8358 34.5787 35.4262 35.1247C38.5714 34.2332 42.1944 35.0162 44.7529 37.5611C50.7746 43.5528 46.5549 53.9199 38.0157 53.9526Z" fill="#0A102F"></path><path d="M61.0968 65.3647C59.3501 63.3701 58.0545 62.1326 56.8016 60.935C52.4861 56.8108 53.0865 56.9496 52.4602 56.498C52.6437 55.875 52.7315 55.2154 52.6705 54.6345C52.5513 53.5097 51.757 52.5767 50.7748 52.3407C55.3755 44.8967 52.6181 35.1987 44.8349 31.2264C44.2559 18.943 46.1257 12.0332 41.8441 6.07372C40.0704 3.15957 37.4096 1.12363 34.2417 0.381511C34.1123 0.351253 33.9861 0.36165 33.8653 0.390975C33.3098 0.173861 35.3468 0.34176 1.41825 -0.000244141C0.636614 -0.000244141 0 0.635837 0 1.41748V55.2023C0 55.5831 0.211805 55.9024 0.512717 56.0863C0.874745 56.609 1.15086 57.0481 1.60486 57.6601C10.2195 57.5233 20.6148 57.8142 29.2771 57.6889C33.8805 60.9281 39.7115 60.9608 44.2593 58.6808C44.6344 59.8759 46.0111 60.4777 47.2695 60.478C48.6065 62.0778 54.2367 67.4913 54.7488 67.9906C56.4585 69.6572 57.1413 69.9159 57.8106 69.8206C58.7276 70.0972 59.8255 70.1076 60.5199 69.4616C61.4263 68.6187 62.0448 66.4481 61.0968 65.3647ZM51.3717 44.4854C51.3919 51.8166 45.4427 57.7978 38.1115 57.8186C38.1019 57.8186 38.0934 57.8186 38.0838 57.8186C26.9226 57.8186 20.7189 44.8229 27.7754 36.1177C30.3069 33.0221 34.0477 31.2413 38.039 31.2333C38.0412 31.2365 38.0732 31.2333 38.0902 31.2333C45.3905 31.2333 51.3439 37.1681 51.3717 44.4854ZM34.8798 2.29349C38.0926 3.40929 40.5244 6.07252 41.7374 9.80203C39.5461 9.83402 37.2798 9.85561 34.8026 9.68866C34.7427 7.17852 34.8559 5.18991 34.8798 2.29349ZM1.63792 1.63928L33.2468 1.85202C33.2361 4.64693 33.0974 7.08003 33.1669 9.82462C33.1924 10.6143 33.8333 11.2701 34.6192 11.3175C37.3107 11.5036 39.7409 11.47 42.088 11.4359L41.9915 30.1311C32.9881 27.6818 24.142 33.9384 23.2276 42.9826C22.3991 47.2768 23.4762 51.3019 26.0559 54.6137H1.63792V1.63928ZM59.4045 68.262C59.16 68.4855 57.9964 68.3286 57.6461 67.9271C54.2215 64.0177 52.953 63.2666 49.7725 59.7157C50.5968 59.2215 51.2245 58.6781 51.6922 58.0474C54.9848 61.7499 56.5619 62.6707 59.8641 66.4438C60.0593 66.6662 59.8535 67.8439 59.4045 68.262Z" fill="#0A102F"></path><path d="M39.3242 39.0439C40.5249 39.2881 41.4921 40.4835 41.4804 41.7082C41.4761 42.1603 41.8397 42.5303 42.2919 42.5346H42.2993C42.7483 42.5346 43.114 42.1731 43.1183 41.7231C43.1364 39.7205 41.6137 37.8384 39.6505 37.439C39.2058 37.3478 38.774 37.6347 38.6844 38.0783C38.5948 38.5214 38.8806 38.9538 39.3242 39.0439Z" fill="#0A102F"></path><path d="M41.4916 44.1767L41.385 44.2705C40.8209 44.7681 41.1744 45.7032 41.9267 45.7032C42.1197 45.7032 42.3127 45.6354 42.4684 45.4979L42.5558 45.4222C42.8992 45.1279 42.9397 44.6112 42.6465 44.2673C42.3521 43.9234 41.836 43.885 41.4916 44.1767Z" fill="#0A102F"></path><path d="M13.453 15.5323C16.6829 15.6803 16.7073 15.7802 17.0685 15.7802C17.4843 15.7802 17.8405 15.4646 17.8821 15.0417C17.9269 14.5917 17.5984 14.1908 17.1484 14.146C13.6839 13.8037 10.167 13.7253 6.69389 13.9125C6.24176 13.937 5.89519 14.323 5.91972 14.7746C5.94425 15.2268 6.32067 15.5643 6.78133 15.5483C8.44965 15.4575 10.128 15.4316 11.8054 15.4672C12.0434 19.1101 13.1175 24.6423 10.3088 26.5925C8.47103 27.8674 6.377 25.456 6.22363 23.2991C6.19057 22.848 5.79069 22.4956 5.34922 22.5404C4.89815 22.5723 4.55798 22.9637 4.58997 23.4153C4.83935 26.9324 8.31083 29.9718 11.243 27.9382C14.3778 25.7624 13.9493 21.1318 13.5975 17.3552C13.5399 16.736 13.4948 16.1335 13.453 15.5323Z" fill="#0A102F"></path><path d="M25.1452 22.2668C24.6675 20.2924 22.7107 17.7604 20.3167 18.156C17.8673 18.5505 15.8295 20.7798 15.5789 23.3411C15.3902 25.2643 16.3179 27.1902 17.8865 28.1339C19.5913 29.1596 21.9452 28.9246 23.4849 27.6055C24.9479 26.352 25.6154 24.2065 25.1452 22.2668ZM18.7311 26.7306C17.7084 26.1153 17.0825 24.7877 17.2083 23.5011C17.3843 21.7165 18.8953 20.044 20.5769 19.7726C21.8949 19.5726 23.2407 21.3641 23.5542 22.6523C23.8826 24.0081 23.4262 25.4984 22.4185 26.3616C21.4087 27.228 19.823 27.3864 18.7311 26.7306Z" fill="#0A102F"></path><path d="M30.9468 28.7316C35.0663 28.7316 37.141 24.3404 35.2623 21.2304C34.1363 19.3648 31.705 18.4392 29.6192 19.0443L29.7717 12.9363C29.7834 12.4841 29.4251 12.1082 28.973 12.0965C28.4995 12.0842 28.1455 12.4425 28.1337 12.8947L27.7776 27.1598C27.7712 27.428 27.8959 27.6829 28.1124 27.8412C28.9282 28.4389 29.9337 28.7316 30.9468 28.7316ZM29.5765 20.7206C29.6917 20.7286 29.7951 20.7126 29.9028 20.6732C31.3104 20.1683 33.0859 20.7958 33.8611 22.0771C34.6342 23.3583 34.3655 25.2228 33.2618 26.2337C32.2456 27.1646 30.6077 27.3566 29.4272 26.736L29.5765 20.7206Z" fill="#0A102F"></path></svg>