<svg xmlns="http://www.w3.org/2000/svg" width="39" height="39" viewBox="0 0 39 39" fill="none"><path d="M34.5212 22.9802C35.2307 20.0609 35.0587 16.9969 34.027 14.1753C32.9954 11.3538 31.1503 8.9015 28.7251 7.12841C26.3 5.35531 23.4035 4.34105 20.402 4.21383C17.4005 4.08661 14.4286 4.85214 11.8621 6.41366C9.29558 7.97518 7.24964 10.2626 5.98293 12.9867C4.71621 15.7108 4.28559 18.7493 4.74549 21.7181C5.20539 24.6869 6.53516 27.4528 8.56671 29.6659C10.5983 31.8791 13.2404 33.4403 16.1591 34.1521C20.0754 35.1037 24.2093 34.4615 27.6524 32.3667C31.0955 30.2718 33.5661 26.8957 34.5212 22.9802ZM26.648 21.0602C26.3139 22.4267 25.5815 23.6631 24.5435 24.6127C23.5056 25.5622 22.209 26.182 20.8183 26.3934C19.4275 26.6049 18.0053 26.3984 16.7321 25.8002C15.4589 25.2021 14.392 24.2392 13.667 23.0337C12.9419 21.8283 12.5912 20.4346 12.6595 19.0295C12.7277 17.6244 13.2119 16.2713 14.0504 15.1418C14.8889 14.0123 16.0441 13.1574 17.3693 12.6855C18.6945 12.2136 20.13 12.146 21.4937 12.4912C23.3132 12.9424 24.8798 14.096 25.8506 15.6996C26.8215 17.3031 27.1174 19.226 26.6738 21.0473L26.648 21.0602Z" fill="#0A102F"></path><path d="M19.1835 34.2167L13.5009 32.8379L12.8438 36.9355L17.8821 38.1597L19.1835 34.2167Z" fill="#0A102F"></path><path d="M8.82607 29.6679L5.78504 24.6812L2.42188 27.1037L5.12788 31.5492L8.82607 29.6679Z" fill="#0A102F"></path><path d="M4.73208 19.1405L6.11085 13.4708L2.02609 12.8008L0.789062 17.852L4.73208 19.1405Z" fill="#0A102F"></path><path d="M9.2864 8.80605L14.2732 5.76502L11.8507 2.40186L7.41797 5.10785L9.2864 8.80605Z" fill="#0A102F"></path><path d="M19.8086 4.70816L25.4912 6.08693L26.1484 1.98927L21.0972 0.765137L19.8086 4.70816Z" fill="#0A102F"></path><path d="M30.1562 9.25729L33.1844 14.2441L36.5604 11.8215L33.8544 7.37598L30.1562 9.25729Z" fill="#0A102F"></path><path d="M34.251 19.7847L32.8594 25.4544L36.957 26.1244L38.1941 21.0732L34.251 19.7847Z" fill="#0A102F"></path><path d="M29.6989 30.1191L24.6992 33.1602L27.1346 36.5233L31.5673 33.8302L29.6989 30.1191Z" fill="#0A102F"></path><path d="M15.0535 22.1681L19.615 24.655L24.0477 21.949L23.9317 16.7947L19.3702 14.2949L14.9375 16.988L15.0535 22.1681ZM19.8856 17.8256C20.2021 17.9036 20.4885 18.0737 20.7084 18.3144C20.9283 18.555 21.072 18.8554 21.1213 19.1777C21.1706 19.5 21.1232 19.8296 20.9853 20.125C20.8473 20.4204 20.6249 20.6683 20.3461 20.8373C20.0674 21.0064 19.7448 21.089 19.4191 21.0748C19.0934 21.0607 18.7792 20.9503 18.5162 20.7576C18.2532 20.5649 18.0532 20.2987 17.9414 19.9924C17.8297 19.6861 17.8112 19.3536 17.8883 19.0369C17.995 18.6129 18.2645 18.248 18.6383 18.0213C19.0122 17.7946 19.4603 17.7243 19.8856 17.8256Z" fill="#0A102F"></path></svg>