<svg xmlns="http://www.w3.org/2000/svg" width="65" height="60" viewBox="0 0 65 60" fill="none"><path d="M46.2735 30.5097C45.8689 30.5098 45.4809 30.6705 45.1948 30.9566C44.9087 31.2426 44.748 31.6307 44.748 32.0352V47.2902C44.7475 47.6947 44.5867 48.0824 44.3007 48.3684C44.0147 48.6544 43.6269 48.8153 43.2225 48.8157H19.8315C19.458 48.8157 19.0975 48.9528 18.8185 49.2011L12.204 55.0801V50.3412C12.204 49.9366 12.0432 49.5486 11.7572 49.2626C11.4711 48.9765 11.0831 48.8157 10.6785 48.8157H4.5765C4.17205 48.8153 3.78429 48.6544 3.49829 48.3684C3.2123 48.0824 3.05144 47.6947 3.051 47.2902V12.7122C3.05144 12.3078 3.2123 11.92 3.49829 11.634C3.78429 11.348 4.17205 11.1872 4.5765 11.1867H25.9335C26.3381 11.1867 26.7261 11.026 27.0122 10.7399C27.2983 10.4538 27.459 10.0658 27.459 9.66124C27.459 9.25665 27.2983 8.86864 27.0122 8.58255C26.7261 8.29646 26.3381 8.13574 25.9335 8.13574H4.5765C3.36314 8.13707 2.19986 8.61966 1.34189 9.47763C0.483915 10.3356 0.00132443 11.4989 0 12.7122V47.2902C0.00132175 48.5036 0.483912 49.6669 1.34189 50.5248C2.19986 51.3828 3.36314 51.8654 4.5765 51.8667H9.153V58.4772C9.15397 58.7708 9.23954 59.0579 9.39946 59.3042C9.55938 59.5504 9.78687 59.7453 10.0547 59.8656C10.3225 59.9859 10.6194 60.0265 10.9097 59.9825C11.1999 59.9384 11.4714 59.8117 11.6915 59.6174L20.4115 51.8667H43.2225C44.4358 51.8654 45.5991 51.3828 46.4571 50.5248C47.3151 49.6669 47.7977 48.5036 47.799 47.2902V32.0352C47.799 31.6307 47.6382 31.2426 47.3521 30.9566C47.0661 30.6705 46.6781 30.5098 46.2735 30.5097Z" fill="#0A102F"></path><path d="M7.62706 19.3225H17.7971C18.2016 19.3225 18.5897 19.1618 18.8757 18.8757C19.1618 18.5896 19.3226 18.2016 19.3226 17.797C19.3226 17.3924 19.1618 17.0044 18.8757 16.7183C18.5897 16.4322 18.2016 16.2715 17.7971 16.2715H7.62706C7.22247 16.2715 6.83446 16.4322 6.54837 16.7183C6.26228 17.0044 6.10156 17.3924 6.10156 17.797C6.10156 18.2016 6.26228 18.5896 6.54837 18.8757C6.83446 19.1618 7.22247 19.3225 7.62706 19.3225Z" fill="#0A102F"></path><path d="M40.1707 40.6797H31.0177C30.6131 40.6797 30.2251 40.8404 29.939 41.1265C29.6529 41.4126 29.4922 41.8006 29.4922 42.2052C29.4922 42.6098 29.6529 42.9978 29.939 43.2839C30.2251 43.57 30.6131 43.7307 31.0177 43.7307H40.1707C40.5753 43.7307 40.9633 43.57 41.2494 43.2839C41.5355 42.9978 41.6962 42.6098 41.6962 42.2052C41.6962 41.8006 41.5355 41.4126 41.2494 41.1265C40.9633 40.8404 40.5753 40.6797 40.1707 40.6797Z" fill="#0A102F"></path><path d="M7.62706 27.4592H25.9331C26.3376 27.4592 26.7257 27.2985 27.0117 27.0124C27.2978 26.7263 27.4586 26.3383 27.4586 25.9337C27.4586 25.5291 27.2978 25.1411 27.0117 24.855C26.7257 24.5689 26.3376 24.4082 25.9331 24.4082H7.62706C7.22247 24.4082 6.83446 24.5689 6.54837 24.855C6.26228 25.1411 6.10156 25.5291 6.10156 25.9337C6.10156 26.3383 6.26228 26.7263 6.54837 27.0124C6.83446 27.2985 7.22247 27.4592 7.62706 27.4592Z" fill="#0A102F"></path><path d="M6.10156 34.0694C6.10158 34.474 6.26231 34.862 6.54839 35.1481C6.83447 35.4342 7.22248 35.5949 7.62706 35.5949H40.1711C40.5756 35.5949 40.9637 35.4342 41.2497 35.1481C41.5358 34.8621 41.6965 34.474 41.6965 34.0694C41.6965 33.6649 41.5358 33.2768 41.2497 32.9908C40.9637 32.7047 40.5756 32.5439 40.1711 32.5439H7.62706C7.22248 32.544 6.83448 32.7047 6.54839 32.9908C6.26231 33.2769 6.10158 33.6649 6.10156 34.0694Z" fill="#0A102F"></path><path d="M60.5115 0H34.0695C33.1258 0.00114382 32.2211 0.376529 31.5538 1.04382C30.8865 1.7111 30.5112 2.61581 30.51 3.5595V23.8995C30.5112 24.8432 30.8865 25.7479 31.5538 26.4152C32.2211 27.0825 33.1258 27.4578 34.0695 27.459H46.7264L53.4153 33.1935C53.637 33.383 53.9083 33.505 54.1971 33.5452C54.4859 33.5854 54.7802 33.542 55.0451 33.4202C55.31 33.2984 55.5345 33.1032 55.6921 32.8578C55.8496 32.6124 55.9335 32.3271 55.934 32.0355L55.935 27.459H60.5115C61.4552 27.4578 62.3599 27.0825 63.0272 26.4152C63.6945 25.7479 64.0699 24.8432 64.071 23.8995V3.5595C64.0699 2.61581 63.6945 1.7111 63.0272 1.04382C62.3599 0.376529 61.4552 0.00114382 60.5115 0ZM56.4435 19.323H38.1375C37.7329 19.323 37.3449 19.1623 37.0588 18.8762C36.7727 18.5901 36.612 18.2021 36.612 17.7975C36.612 17.3929 36.7727 17.0049 37.0588 16.7188C37.3449 16.4327 37.7329 16.272 38.1375 16.272H56.4435C56.8481 16.272 57.2361 16.4327 57.5222 16.7188C57.8083 17.0049 57.969 17.3929 57.969 17.7975C57.969 18.2021 57.8083 18.5901 57.5222 18.8762C57.2361 19.1623 56.8481 19.323 56.4435 19.323ZM56.4435 11.187H38.1375C37.7329 11.187 37.3449 11.0263 37.0588 10.7402C36.7727 10.4541 36.612 10.0661 36.612 9.6615C36.612 9.25691 36.7727 8.86889 37.0588 8.5828C37.3449 8.29672 37.7329 8.136 38.1375 8.136H56.4435C56.8481 8.136 57.2361 8.29672 57.5222 8.5828C57.8083 8.86889 57.969 9.25691 57.969 9.6615C57.969 10.0661 57.8083 10.4541 57.5222 10.7402C57.2361 11.0263 56.8481 11.187 56.4435 11.187Z" fill="#3147FF"></path></svg>